<?xml version="1.0" encoding="UTF-8" standalone="no"?>
<!-- Generator: Adobe Illustrator 27.7.0, SVG Export Plug-In . SVG Version: 6.00 Build 0)  -->

<svg
   version="1.1"
   id="Layer_1"
   x="0px"
   y="0px"
   viewBox="0 0 300 296"
   xml:space="preserve"
   sodipodi:docname="eventpop.svg"
   width="300"
   height="296"
   inkscape:version="1.3 (0e150ed, 2023-07-21)"
   xmlns:inkscape="http://www.inkscape.org/namespaces/inkscape"
   xmlns:sodipodi="http://sodipodi.sourceforge.net/DTD/sodipodi-0.dtd"
   xmlns="http://www.w3.org/2000/svg"
   xmlns:svg="http://www.w3.org/2000/svg"><defs
   id="defs2" /><sodipodi:namedview
   id="namedview2"
   pagecolor="#ffffff"
   bordercolor="#666666"
   borderopacity="1.0"
   inkscape:showpageshadow="2"
   inkscape:pageopacity="0.0"
   inkscape:pagecheckerboard="0"
   inkscape:deskcolor="#d1d1d1"
   inkscape:zoom="0.28758741"
   inkscape:cx="413.78723"
   inkscape:cy="-102.57751"
   inkscape:window-width="1512"
   inkscape:window-height="916"
   inkscape:window-x="0"
   inkscape:window-y="38"
   inkscape:window-maximized="1"
   inkscape:current-layer="Layer_1" />&#10;<style
   type="text/css"
   id="style1">&#10;	.st0{fill:#000106;}&#10;	.st1{fill:#FFFFFF;}&#10;</style>&#10;&#10;&#10;<g
   id="Logo">&#10;	<path
   class="st0"
   d="M 48,144.4 C 48,110.6 48,93.8 54.6,80.9 60.4,69.6 69.6,60.3 80.9,54.6 93.8,48 110.7,48 144.4,48 h 7.1 c 33.8,0 50.6,0 63.5,6.6 11.3,5.8 20.6,15 26.3,26.3 6.6,12.9 6.6,29.8 6.6,63.5 v 7.1 c 0,33.8 0,50.6 -6.6,63.5 -5.8,11.3 -15,20.6 -26.3,26.3 -12.9,6.6 -29.8,6.6 -63.5,6.6 h -7.1 c -33.8,0 -50.6,0 -63.5,-6.6 C 69.6,235.5 60.3,226.3 54.6,215 48,202.2 48,185.3 48,151.6 Z"
   id="path1" />&#10;	<path
   class="st1"
   d="m 153.6,167.4 c -3,0.8 -4.7,3.1 -5.4,6.2 l -0.9,4 c -0.8,3.8 -4.2,6.5 -8.1,6.4 -3.9,0 -5.3,-2.9 -4.6,-7 l 3,-13.5 c 0,0 14.5,-0.7 28.2,-4.6 22.6,-6.5 32.9,-15.3 37.8,-23.2 7.2,-11.7 7.2,-25.5 -1.9,-35.6 -8.8,-9.7 -23,-16 -39.8,-16.1 -35.9,-0.2 -70.3,28.5 -76.9,63.7 -6.5,35.3 17.3,64.1 53.2,64.3 31.6,0.1 62.1,-22.1 73.4,-51.5 1.6,-4.1 -2.1,-8.4 -6.2,-7.3 0,0 -33.4,9.3 -51.8,14.2 z m -5.3,-51.6 c 0.7,-3.4 4.1,-6.2 7.6,-6.2 3.5,0 5.9,2.8 5.2,6.2 L 154,148 c -0.6,3.1 -3,5.4 -6,5.8 l -8.4,1.2 z"
   id="path2" />&#10;</g>&#10;</svg>
